<?xml version="1.0" standalone="no"?>
<!DOCTYPE svg PUBLIC "-//W3C//DTD SVG 20010904//EN"
 "http://www.w3.org/TR/2001/REC-SVG-20010904/DTD/svg10.dtd">
<svg version="1.0" xmlns="http://www.w3.org/2000/svg"
 width="171.000000pt" height="78.000000pt" viewBox="0 0 171.000000 78.000000"
 preserveAspectRatio="xMidYMid meet">

<g transform="translate(0.000000,78.000000) scale(0.100000,-0.100000)"
fill="#000000" stroke="none">
<path d="M271 732 c-26 -50 -27 -113 -3 -166 l18 -40 24 38 c34 57 37 121 7
170 l-25 40 -21 -42z"/>
<path d="M80 691 c0 -28 8 -48 26 -71 26 -30 121 -86 131 -77 8 9 -17 84 -40
118 -22 33 -46 49 -94 64 -21 6 -23 3 -23 -34z"/>
<path d="M392 635 c-24 -20 -80 -125 -67 -125 2 0 29 9 59 20 42 16 58 28 70
54 9 19 16 43 16 55 0 30 -41 28 -78 -4z"/>
<path d="M1277 624 c-4 -4 -7 -16 -7 -26 0 -14 6 -19 23 -16 14 2 22 10 22 23
0 20 -25 32 -38 19z"/>
<path d="M625 525 c-42 -41 -25 -144 26 -160 36 -12 89 3 89 25 0 16 -7 18
-41 17 -37 -2 -43 1 -51 24 -5 16 -5 36 2 54 10 25 14 27 50 22 34 -4 40 -2
40 13 0 38 -79 42 -115 5z"/>
<path d="M803 543 c-7 -2 -13 -13 -13 -23 0 -15 7 -18 40 -17 49 2 53 -16 4
-24 -37 -6 -54 -22 -54 -51 0 -49 36 -72 101 -62 l39 7 0 73 c0 85 -13 104
-68 103 -20 0 -43 -3 -49 -6z m77 -112 c0 -20 -32 -37 -50 -26 -14 9 -13 32 3
38 28 12 47 7 47 -12z"/>
<path d="M998 542 l-28 -3 0 -85 c0 -84 0 -84 26 -84 26 0 26 1 22 68 -3 67
-3 67 25 70 30 4 32 -5 27 -95 -2 -39 0 -43 22 -43 22 0 23 3 21 57 -1 62 8
83 38 83 21 0 24 -20 20 -97 -2 -40 -1 -43 23 -43 25 0 26 1 26 70 0 97 -12
108 -116 107 -44 -1 -91 -3 -106 -5z"/>
<path d="M1413 543 l-33 -4 0 -85 c0 -77 2 -84 20 -84 17 0 19 8 22 68 l3 67
30 0 30 0 0 -65 c1 -59 2 -65 23 -68 21 -3 22 0 22 71 0 102 -12 113 -117 100z"/>
<path d="M1603 542 c-6 -4 -16 -20 -22 -35 -9 -23 -7 -31 9 -47 11 -11 31 -20
44 -20 14 0 28 -5 32 -11 10 -17 -18 -30 -53 -24 -28 5 -33 3 -33 -14 0 -15 9
-22 33 -26 45 -9 83 8 91 39 9 38 -8 63 -49 70 -22 5 -35 13 -35 23 0 13 8 15
40 10 34 -4 40 -2 40 13 0 10 -7 21 -16 24 -22 8 -66 7 -81 -2z"/>
<path d="M1270 460 c0 -71 2 -81 21 -91 17 -9 23 -8 30 2 11 18 11 27 -1 34
-5 3 -10 35 -10 71 0 57 -2 64 -20 64 -18 0 -20 -7 -20 -80z"/>
<path d="M38 513 c-34 -21 -35 -29 -6 -44 35 -19 109 -15 153 8 l40 21 -30 12
c-52 22 -127 23 -157 3z"/>
<path d="M361 496 l-43 -23 52 -22 c61 -26 100 -22 130 17 l21 26 -23 13 c-35
19 -88 15 -137 -11z"/>
<path d="M270 471 c0 -17 18 -21 24 -6 3 9 0 15 -9 15 -8 0 -15 -4 -15 -9z"/>
<path d="M185 434 c-70 -25 -113 -94 -59 -94 48 0 84 29 103 83 11 31 11 31
-44 11z"/>
<path d="M316 398 c15 -56 51 -98 85 -98 24 0 26 47 4 89 -11 23 -74 61 -99
61 -2 0 3 -24 10 -52z"/>
<path d="M665 293 c-41 -10 -55 -33 -55 -90 0 -40 5 -58 20 -73 28 -28 75 -26
107 6 22 22 25 32 21 75 -7 67 -39 95 -93 82z m59 -34 c14 -13 11 -96 -4 -113
-16 -20 -54 -20 -74 0 -17 16 -22 90 -8 110 15 23 63 25 86 3z"/>
<path d="M842 289 c-13 -5 -28 -7 -33 -3 -9 5 -11 -5 -12 -61 -2 -73 4 -116
13 -110 6 3 10 39 10 80 0 69 1 73 24 79 53 13 68 -11 64 -101 -2 -29 2 -53 7
-55 6 -2 11 28 13 72 3 67 1 77 -19 93 -24 19 -33 20 -67 6z"/>
<path d="M1009 294 c-15 -5 -39 -44 -39 -64 0 -5 5 -21 12 -37 14 -35 11 -72
-8 -90 -40 -41 8 -89 81 -81 55 7 75 22 75 59 0 31 -23 49 -64 49 -31 0 -56 9
-56 21 0 5 14 9 30 9 43 0 72 33 68 76 -2 23 3 38 12 44 12 8 9 10 -11 10 -15
0 -39 2 -55 4 -16 2 -36 2 -45 0z m79 -62 c4 -36 -25 -57 -63 -48 -42 11 -43
70 -2 85 35 13 62 -2 65 -37z m21 -147 c4 -26 -25 -45 -70 -45 -43 0 -68 23
-52 48 21 35 115 33 122 -3z"/>
</g>
</svg>
